<?xml version="1.0" standalone="no"?>
<!DOCTYPE svg PUBLIC "-//W3C//DTD SVG 20010904//EN"
 "http://www.w3.org/TR/2001/REC-SVG-20010904/DTD/svg10.dtd">
<svg version="1.0" xmlns="http://www.w3.org/2000/svg"
 width="512.000000pt" height="512.000000pt" viewBox="0 0 512.000000 512.000000"
 preserveAspectRatio="xMidYMid meet">

<g transform="translate(0.000000,512.000000) scale(0.100000,-0.100000)"
fill="#000000" stroke="none">
<path d="M2516 4016 c-1242 -498 -2267 -912 -2276 -921 -48 -43 -50 -123 -4
-168 20 -21 230 -94 1007 -353 540 -179 987 -331 993 -338 7 -6 159 -453 338
-993 259 -777 332 -987 353 -1007 48 -48 130 -43 172 11 11 13 425 1038 921
2279 989 2473 924 2294 862 2357 -62 61 108 124 -2366 -867z m2061 552 c-96
-243 -1551 -3876 -1555 -3882 -6 -10 -542 1586 -542 1614 0 8 70 84 155 170
144 146 155 159 155 194 0 76 -50 126 -126 126 -35 0 -48 -11 -194 -155 -86
-85 -162 -155 -170 -155 -8 0 -377 121 -820 269 -718 239 -802 270 -780 280
43 20 3865 1549 3874 1550 4 1 6 -5 3 -11z"/>
<path d="M953 2018 c-240 -242 -283 -288 -288 -320 -17 -92 85 -169 168 -127
12 6 142 131 290 278 180 179 271 277 278 298 24 75 -37 153 -119 153 l-47 0
-282 -282z"/>
<path d="M1915 2070 c-11 -4 -248 -237 -527 -517 -543 -545 -534 -535 -504
-606 19 -46 59 -72 113 -72 l43 0 515 515 c426 426 516 521 521 549 17 86 -81
165 -161 131z"/>
<path d="M2135 1396 c-16 -8 -155 -139 -307 -293 l-278 -279 0 -52 c0 -42 5
-57 28 -82 33 -39 94 -50 138 -27 16 9 154 141 307 294 l277 279 0 46 c0 54
-27 93 -76 114 -41 17 -51 17 -89 0z"/>
<path d="M585 748 c-60 -47 -66 -125 -14 -177 35 -35 80 -45 123 -27 68 28 95
101 61 166 -30 59 -119 79 -170 38z"/>
</g>
</svg>
