<?xml version="1.0" encoding="UTF-8" standalone="no"?>
<!DOCTYPE svg PUBLIC "-//W3C//DTD SVG 20010904//EN" "http://www.w3.org/TR/2001/REC-SVG-20010904/DTD/svg10.dtd">
<svg version="1.0" xmlns="http://www.w3.org/2000/svg" width="512.000000pt" height="512.000000pt" viewBox="0 0 512.000000 512.000000" preserveAspectRatio="xMidYMid meet">

<g transform="translate(0.000000,512.000000) scale(0.100000,-0.100000)" fill="#000000" stroke="none">
<path d="M2370 5113 c-379 -36 -661 -116 -980 -278 -378 -193 -717 -497 -965 -865 -104 -156 -232 -419 -294 -605 -49 -150 -89 -321 -113 -490 -17 -118 -17 -512 0 -630 42 -295 120 -553 242 -800 137 -280 272 -468 494 -691 221 -220 412 -357 681 -489 188 -92 309 -137 500 -185 500 -126 1002 -102 1490 71 149 53 407 182 540 271 299 199 573 480 769 788 72 113 188 353 235 486 235 662 194 1372 -115 1993 -124 250 -263 447 -458 648 -216 224 -428 378 -711 518 -296 146 -572 225 -900 255 -102 9 -333 11 -415 3z m1423 -2373 c21 -14 50 -43 65 -64 24 -35 27 -49 27 -116 0 -67 -3 -81 -27 -116 -15 -21 -44 -50 -65 -64 l-37 -25 -1196 0 -1196 0 -37 25 c-21 14 -50 43 -65 64 -24 35 -27 49 -27 117 0 70 3 81 30 120 17 23 50 53 74 66 l45 23 1186 -2 1186 -3 37 -25z"/>
</g>
</svg>