<?xml version="1.0" standalone="no"?>
<!DOCTYPE svg PUBLIC "-//W3C//DTD SVG 20010904//EN"
 "http://www.w3.org/TR/2001/REC-SVG-20010904/DTD/svg10.dtd">
<svg version="1.0" xmlns="http://www.w3.org/2000/svg"
 width="512.000000pt" height="512.000000pt" viewBox="0 0 512.000000 512.000000"
 preserveAspectRatio="xMidYMid meet">

<g transform="translate(0.000000,512.000000) scale(0.100000,-0.100000)"
fill="#000000" stroke="none">
<path d="M3152 4849 c-266 -28 -573 -135 -792 -277 -297 -192 -526 -479 -629
-787 -34 -102 -61 -227 -61 -280 0 -43 -13 -49 -121 -58 -348 -29 -747 -198
-1035 -440 -601 -504 -683 -1315 -194 -1921 64 -79 73 -95 82 -150 24 -152
-33 -344 -140 -467 -66 -74 -75 -105 -47 -158 22 -43 62 -55 163 -47 229 17
465 114 638 262 52 44 52 44 90 30 129 -45 370 -84 569 -93 774 -33 1473 398
1708 1053 26 72 64 241 69 304 3 40 2 40 188 60 109 12 301 51 371 76 l41 14
52 -44 c173 -148 409 -245 638 -262 101 -8 141 4 163 47 28 53 19 84 -47 158
-107 123 -164 315 -140 467 9 55 18 71 82 150 483 599 409 1399 -175 1907
-392 340 -944 511 -1473 456z m393 -199 c285 -32 555 -129 785 -281 126 -84
319 -275 393 -389 69 -108 97 -164 135 -270 139 -395 40 -818 -274 -1171 -51
-58 -69 -135 -68 -289 1 -113 20 -207 60 -299 14 -30 22 -56 19 -59 -6 -7
-118 34 -186 69 -65 32 -198 130 -248 183 -44 45 -72 46 -195 7 -51 -16 -141
-39 -201 -50 -111 -21 -295 -42 -306 -35 -3 2 -9 34 -12 71 -14 148 -93 373
-183 521 -68 113 -160 227 -258 320 l-87 82 660 0 c490 0 667 3 686 12 29 13
55 55 55 88 0 33 -26 75 -55 88 -19 9 -230 12 -839 12 l-813 0 -89 39 c-178
77 -383 132 -541 146 -123 11 -117 6 -109 80 14 140 90 338 185 480 298 451
896 711 1486 645z m-1449 -1424 c318 -66 582 -205 795 -416 747 -743 300
-1903 -816 -2120 -274 -53 -633 -29 -915 60 -138 43 -149 42 -228 -31 -75 -69
-153 -124 -227 -161 -63 -32 -174 -72 -180 -66 -3 3 5 29 19 59 39 91 59 186
60 299 1 154 -17 231 -68 289 -394 444 -444 985 -133 1451 70 106 270 301 387
379 223 148 492 246 770 281 132 16 399 4 536 -24z"/>
<path d="M2511 3846 c-87 -48 -50 -186 49 -186 51 0 100 49 100 99 0 75 -83
124 -149 87z"/>
<path d="M2911 3846 c-67 -37 -65 -143 4 -174 19 -9 193 -12 675 -12 482 0
656 3 675 12 29 13 55 55 55 88 0 33 -26 75 -55 88 -40 18 -1321 16 -1354 -2z"/>
<path d="M851 2246 c-87 -48 -50 -186 49 -186 51 0 100 49 100 99 0 75 -83
124 -149 87z"/>
<path d="M1251 2246 c-67 -37 -65 -143 4 -174 37 -17 1313 -17 1350 0 29 13
55 55 55 88 0 33 -26 75 -55 88 -40 18 -1321 16 -1354 -2z"/>
<path d="M851 1646 c-67 -37 -65 -143 4 -174 37 -17 1713 -17 1750 0 29 13 55
55 55 88 0 33 -26 75 -55 88 -40 18 -1721 16 -1754 -2z"/>
</g>
</svg>
