<?xml version="1.0" standalone="no"?>
<!DOCTYPE svg PUBLIC "-//W3C//DTD SVG 20010904//EN"
 "http://www.w3.org/TR/2001/REC-SVG-20010904/DTD/svg10.dtd">
<svg version="1.0" xmlns="http://www.w3.org/2000/svg"
 width="1024.000000pt" height="1024.000000pt" viewBox="0 0 1024.000000 1024.000000"
 preserveAspectRatio="xMidYMid meet">

<g transform="translate(0.000000,1024.000000) scale(0.100000,-0.100000)"
fill="#000000" stroke="none">
<path d="M4835 8974 c-307 -31 -518 -69 -752 -134 -891 -248 -1670 -814 -2187
-1590 -329 -493 -535 -1044 -618 -1653 -20 -140 -23 -207 -23 -492 0 -372 14
-514 80 -819 332 -1538 1577 -2737 3118 -3000 263 -45 338 -51 672 -51 401 0
588 21 932 105 646 159 1243 485 1733 949 323 305 608 687 802 1076 202 402
331 838 390 1315 21 167 18 721 -5 890 -56 412 -163 794 -322 1142 -508 1114
-1515 1925 -2711 2183 -282 61 -432 76 -769 80 -165 1 -318 1 -340 -1z m690
-498 c431 -56 828 -179 1175 -363 1293 -689 1998 -2084 1780 -3523 -181 -1193
-992 -2207 -2120 -2647 -725 -283 -1534 -308 -2270 -71 -942 304 -1703 997
-2088 1903 -129 304 -208 604 -253 970 -17 132 -17 570 -1 710 67 576 249
1078 560 1543 558 832 1483 1388 2467 1482 61 5 128 12 150 14 81 8 493 -4
600 -18z"/>
<path d="M5580 7571 c-30 -10 -75 -28 -100 -40 -54 -28 -2113 -2078 -2161
-2153 -48 -75 -71 -145 -76 -238 -6 -101 7 -173 48 -261 28 -59 109 -143 1082
-1116 1118 -1119 1085 -1089 1221 -1128 82 -24 239 -17 316 14 199 81 322 262
322 476 0 106 -24 190 -79 275 -21 34 -356 377 -859 880 l-824 825 834 835
c517 519 843 852 859 880 97 172 94 381 -9 538 -69 106 -170 180 -293 216 -73
22 -210 20 -281 -3z"/>
</g>
</svg>
